<svg width="128" height="128" viewBox="0 0 128 128" fill="none" xmlns="http://www.w3.org/2000/svg">
<path d="M78.9316 88.834C70.2629 85.4539 61.1202 83.7917 51.503 83.8484C40.1503 83.9158 29.2243 87.1711 19.9521 93.2429C18.1063 94.4496 16.1323 92.146 17.5301 90.6422C18.3196 89.7909 19.0273 88.9203 19.6533 88.0309C25.2586 80.0599 28.5746 71.0711 29.6013 61.0646C31.3405 44.0907 25.8633 27.9094 17.4696 13.1613C17.1246 12.5562 17.4588 11.4168 18.0778 11.0133C18.7251 10.5913 19.3856 10.5544 20.0588 10.9037C33.1875 17.7353 44.909 26.1813 55.2232 36.2426C69.5137 50.1804 80.0626 67.3063 82.5344 87.2171C82.6816 88.3943 82.2191 89.1089 81.1474 89.3613C80.4574 89.5242 79.6429 89.1101 78.9316 88.834ZM92.0341 112.619C94.2393 114.265 96.2881 114.106 98.3828 112.581C100.742 110.861 103.172 109.094 105.674 107.28C107.826 105.719 110.39 105.168 113.001 105.872C114.023 106.15 115.206 106.784 116.55 107.775C118.894 109.508 121.252 111.222 123.624 112.917C124.39 113.462 125.211 113.74 126.089 113.752C127.21 113.768 127.843 114.33 127.988 115.436C128.017 115.637 127.993 115.842 127.917 116.031C127.594 116.856 126.989 117.27 126.099 117.272C124.506 117.28 123.054 116.829 121.743 115.921C119.204 114.159 116.699 112.348 114.231 110.489C112.264 109.014 110.102 108.504 108.018 110.005C105.404 111.883 102.794 113.765 100.186 115.652C97.9713 117.254 95.5671 117.708 92.9731 117.014C91.8754 116.719 90.6636 116.076 89.3384 115.086C86.9034 113.267 84.5996 111.597 82.4276 110.076C80.5499 108.757 78.6541 108.765 76.7409 110.1C74.6424 111.565 72.4409 113.161 70.1362 114.888C68.6377 116.01 67.3429 116.719 66.2522 117.014C63.6749 117.715 61.2635 117.262 59.0182 115.655C56.6133 113.935 54.2219 112.197 51.8442 110.44C49.3797 108.621 47.4662 108.706 45.0405 110.461C42.6167 112.216 40.1946 113.973 37.7743 115.733C35.657 117.271 33.281 117.695 30.647 117.004C29.5516 116.716 28.3423 116.075 27.0191 115.082C24.7311 113.365 22.2806 111.594 19.6676 109.771C18.1846 108.734 15.9543 108.985 14.5496 110.005C11.832 111.976 9.10408 113.932 6.36588 115.875C5.00488 116.84 3.41639 117.3 1.59989 117.255C0.867396 117.238 0.351648 116.785 0.0528985 115.896C0.00540904 115.756 -0.0103848 115.608 0.00664866 115.461C0.118148 114.366 0.726146 113.794 1.83114 113.745C2.86264 113.7 3.73289 113.42 4.44163 112.906C7.04216 111.021 9.64565 109.139 12.2521 107.262C12.3161 107.215 12.3291 107.156 12.2911 107.085C11.1381 105.043 9.97388 103.008 8.79862 100.978C8.04462 99.683 8.70987 98.2533 10.2569 98.1543C45.9482 95.9308 81.6389 93.6981 117.329 91.456C117.793 91.4256 118.259 91.4232 118.723 91.4491C119.812 91.5093 120.459 92.7335 120.157 93.7172C120.057 94.0452 119.761 94.4297 119.267 94.8707C111.315 101.987 101.943 107.613 92.0626 112.319C91.8894 112.404 91.8801 112.504 92.0341 112.619ZM13.3299 101.608C13.3239 101.61 13.3185 101.613 13.3139 101.617C13.3093 101.621 13.3057 101.626 13.3033 101.632C13.3009 101.638 13.2998 101.644 13.3001 101.65C13.3003 101.656 13.302 101.662 13.3049 101.668L15.5383 105.55C15.5689 105.602 15.6149 105.645 15.6703 105.67C15.7256 105.696 15.7876 105.705 15.8478 105.695C18.0861 105.32 20.0978 105.748 21.8833 106.979C24.2473 108.607 26.7476 110.41 29.3843 112.389C31.3653 113.876 33.4425 114.399 35.548 112.917C37.6083 111.466 40.053 109.698 42.8818 107.613C45.4352 105.73 47.9747 105.058 51.0407 105.971C51.9202 106.233 53.133 106.94 54.679 108.094C56.769 109.649 58.8771 111.18 61.0027 112.687C63.2932 114.311 65.2707 114.07 67.4757 112.414C69.9395 110.561 72.4391 108.754 74.9732 106.997C78.1386 104.799 81.9831 105.245 85.0384 107.531C86.1216 108.344 87.2171 109.14 88.3246 109.92C88.4294 109.995 88.5706 110.01 88.6921 109.956C97.4856 105.959 105.549 101.176 112.883 95.6067C113.194 95.3707 113.155 95.2659 112.766 95.2918C79.6774 97.3652 46.8282 99.4213 14.2189 101.459C13.9183 101.479 13.6204 101.529 13.3299 101.608ZM88.9861 85.094C84.8429 68.9906 77.6689 53.5418 67.3407 40.9379C62.8997 35.5195 58.0957 31.0266 52.9292 27.46C51.631 26.5648 52.3565 24.3676 53.9427 24.3746C54.3482 24.3746 54.7892 24.4818 55.266 24.6965C78.6044 35.1703 95.4273 55.1625 105.08 78.5303C106.15 81.1208 107.094 83.7611 107.908 86.4421C108.416 88.1088 106.855 89.6197 105.293 88.6323C101.274 86.0954 95.9216 85.9078 90.8961 86.5376C89.9571 86.6545 89.2066 85.9576 88.9861 85.094ZM92.2511 82.8543C95.8433 82.5004 99.6241 82.7339 103.113 83.7567C103.131 83.7613 103.149 83.7612 103.166 83.7563C103.184 83.7513 103.199 83.7418 103.212 83.7288C103.224 83.7157 103.233 83.6995 103.237 83.6819C103.241 83.6644 103.24 83.6461 103.234 83.6291C96.2736 64.8365 84.3876 47.7601 68.0589 36.0762C67.7627 35.866 67.7342 35.8981 67.9737 36.1717C79.5754 49.4337 87.4819 65.654 92.0306 82.7021C92.0613 82.8152 92.1348 82.866 92.2511 82.8543ZM30.5153 34.3811C35.5905 51.808 34.3103 70.3777 25.1768 86.0991C25.1706 86.1091 25.1679 86.1208 25.1691 86.1325C25.1704 86.1442 25.1755 86.1551 25.1836 86.1636C25.1918 86.1721 25.2025 86.1776 25.2142 86.1793C25.2259 86.1811 25.2378 86.1789 25.2481 86.1732C33.5965 82.321 42.4075 80.3666 51.6807 80.3101C60.8427 80.2534 69.7674 81.7632 78.4551 84.8393C78.4727 84.8457 78.4916 84.8474 78.51 84.8442C78.5284 84.841 78.5456 84.8332 78.56 84.8213C78.5744 84.8095 78.5854 84.7941 78.592 84.7767C78.5985 84.7593 78.6004 84.7405 78.5974 84.7222C75.1119 62.8833 60.551 44.5046 43.7958 30.7896C37.5883 25.7063 30.9315 21.1049 23.8253 16.9864C23.5953 16.8518 23.5421 16.9035 23.6653 17.1421C26.4443 22.4993 28.7276 28.2457 30.5153 34.3811Z" fill="white"/>
</svg>
